{
	"asset":{
		"generator":"Khronos glTF Blender I/O v3.6.28",
		"version":"2.0"
	},
	"scene":0,
	"scenes":[
		{
			"name":"Scene",
			"nodes":[
				0
			]
		}
	],
	"nodes":[
		{
			"mesh":0,
			"name":"Plane",
			"scale":[
				1.824806809425354,
				1.824806809425354,
				1.824806809425354
			]
		}
	],
	"meshes":[
		{
			"name":"Plane",
			"primitives":[
				{
					"attributes":{
						"POSITION":0,
						"NORMAL":1,
						"TEXCOORD_0":2
					},
					"indices":3
				}
			]
		}
	],
	"accessors":[
		{
			"bufferView":0,
			"componentType":5126,
			"count":114,
			"max":[
				9.512819290161133,
				2.37546968460083,
				7.072310924530029
			],
			"min":[
				-1,
				0,
				-4.939657688140869
			],
			"type":"VEC3"
		},
		{
			"bufferView":1,
			"componentType":5126,
			"count":114,
			"type":"VEC3"
		},
		{
			"bufferView":2,
			"componentType":5126,
			"count":114,
			"type":"VEC2"
		},
		{
			"bufferView":3,
			"componentType":5123,
			"count":240,
			"type":"SCALAR"
		}
	],
	"bufferViews":[
		{
			"buffer":0,
			"byteLength":1368,
			"byteOffset":0,
			"target":34962
		},
		{
			"buffer":0,
			"byteLength":1368,
			"byteOffset":1368,
			"target":34962
		},
		{
			"buffer":0,
			"byteLength":912,
			"byteOffset":2736,
			"target":34962
		},
		{
			"buffer":0,
			"byteLength":480,
			"byteOffset":3648,
			"target":34963
		}
	],
	"images": [
    {
      "uri": "Scene1_baseColor.jpeg"
    }
  	],
	"buffers":[
		{
			"byteLength":4128,
			"uri":"Scene1.bin"
		}
	]
}
